<svg width="104" height="38" viewBox="0 0 32768 5472" fill="none" xmlns="http://www.w3.org/2000/svg">
<path d="M3987.36 4455.37C3574.34 4455.37 3199.24 4378.67 2862.08 4225.26C2521.54 4073.53 2249.28 3837.52 2045.3 3517.21C1841.31 3196.91 1739.32 2793.15 1739.32 2305.95C1739.32 1918.21 1819.4 1570.93 1979.55 1264.11C2139.7 957.294 2372.35 717.065 2677.48 543.426C2984.3 368.1 3345.07 280.438 3759.78 280.438C3935.1 280.438 4105.37 309.94 4270.58 368.943C4437.48 427.947 4568.97 513.924 4665.06 626.874L4748.51 358.828H5623.45V1843.19H4842.07C4789.81 1630.78 4689.51 1469.78 4541.15 1360.21C4392.8 1250.63 4237.71 1195.84 4075.87 1195.84C3806.14 1195.84 3592.88 1294.46 3436.1 1491.7C3279.32 1688.94 3200.93 1960.36 3200.93 2305.95C3200.93 2654.92 3278.48 2928.86 3433.57 3127.79C3588.67 3325.03 3807.82 3423.65 4091.04 3423.65C4158.47 3423.65 4230.96 3416.91 4308.51 3403.42C4365.83 3393.3 4419.78 3379.82 4470.35 3362.96C4520.92 3344.42 4554.64 3333.46 4571.5 3330.09V2973.54H4085.98V2222.5H5706.9V4030.54C5447.28 4168.78 5169.12 4274.15 4872.42 4346.64C4575.71 4419.13 4280.7 4455.37 3987.36 4455.37Z" fill="#141414"/>
<path d="M8171.8 4455.37C7571.65 4455.37 7139.24 4298.59 6874.56 3985.03C6611.58 3669.78 6480.08 3207.86 6480.08 2599.28V1248.94H6070.43V358.828H8265.36V1248.94H7893.64V2943.19C7893.64 3108.4 7934.1 3244.11 8015.02 3350.32C8095.94 3454.84 8223.22 3507.1 8396.86 3507.1C8541.84 3507.1 8656.48 3464.11 8740.77 3378.13C8825.06 3290.47 8867.2 3172.46 8867.2 3024.11V1248.94H8452.49V358.828H10103.8V1248.94H9716.86V2988.71C9716.86 3310.7 9651.95 3581.27 9522.14 3800.43C9394.02 4017.9 9214.48 4181.43 8983.52 4291C8752.57 4400.58 8481.99 4455.37 8171.8 4455.37Z" fill="#141414"/>
<path d="M12620.8 4450.93C12482.6 4450.93 12364.6 4440.82 12266.8 4420.59C12169 4400.36 12078 4367.48 11993.7 4321.97C11911.1 4276.45 11822.6 4217.45 11728.2 4144.96L11639.7 4377.6H10822.9V3146.11H11634.6C11686.9 3287.72 11767 3388.02 11874.9 3447.03C11984.4 3504.34 12118.5 3533 12276.9 3533C12374.7 3533 12458.1 3513.62 12527.3 3474.84C12596.4 3434.38 12630.9 3381.28 12630.9 3315.53C12630.9 3232.93 12595.5 3171.4 12524.7 3130.94C12453.9 3088.79 12354.5 3050.02 12226.3 3014.61C12062.8 2970.78 11914.5 2924.42 11781.3 2875.53C11649.8 2826.64 11531.8 2776.07 11427.3 2723.81C11218.2 2619.29 11049.6 2470.94 10921.5 2278.75C10793.4 2086.57 10729.3 1831.17 10729.3 1512.55C10729.3 1268.1 10782.4 1052.32 10888.6 865.193C10993.2 679.753 11143.2 535.615 11338.8 432.78C11536 328.259 11767.8 275.999 12034.2 275.999C12359.5 275.999 12616.6 379.677 12805.4 587.032L12934.4 349.332H13660.1V1555.54H12883.8C12811.3 1403.81 12731.2 1298.45 12643.6 1239.44C12555.9 1180.44 12435.4 1150.94 12282 1150.94C12165.7 1150.94 12075.5 1172.01 12011.4 1214.16C11947.3 1254.62 11915.3 1311.09 11915.3 1383.58C11915.3 1464.5 11961.7 1526.03 12054.4 1568.18C12145.4 1612.01 12275.2 1652.47 12443.8 1689.56C12738.8 1756.99 12993.4 1842.13 13207.5 1944.96C13416.5 2047.8 13583.4 2193.62 13708.2 2382.43C13834.6 2569.56 13897.8 2811.47 13897.8 3108.18C13897.8 3359.36 13845.6 3586.95 13741.1 3790.93C13634.8 3994.92 13484 4155.91 13288.4 4273.92C13094.5 4391.93 12872 4450.93 12620.8 4450.93Z" fill="#141414"/>
<path d="M17302.6 3471.7V4382.04H15049.5V3471.7H15464.2V1248.94H15107.7L14998.9 1941.81H14288.4V358.828H18073.9V1941.81H17365.8L17257.1 1248.94H16887.9V3471.7H17302.6Z" fill="#141414"/>
<path d="M26442.4 1248.94L25438.5 4382.04H23956.7L23046.3 1248.94H22626.6V358.828H24811.4V1248.94H24523.1L25028.9 3077.21L25473.9 1248.94H25142.7V358.828H26900.1V1248.94H26442.4Z" fill="#141414"/>
<path d="M28920.6 4455.37C28500.8 4455.37 28137.5 4365.18 27830.7 4184.8C27525.6 4004.41 27292.9 3756.6 27132.8 3441.35C26974.3 3126.1 26895.1 2766.18 26895.1 2361.58C26895.1 1941.81 26974.3 1575.99 27132.8 1264.11C27291.2 950.551 27522.2 708.636 27825.6 538.368C28130.8 366.414 28495.8 280.438 28920.6 280.438C29343.7 280.438 29707.9 365.572 30013 535.839C30316.4 707.793 30547.4 950.551 30705.9 1264.11C30866 1577.68 30946.1 1943.5 30946.1 2361.58C30946.1 2766.18 30866.9 3126.1 30708.4 3441.35C30549.9 3756.6 30317.3 4004.41 30010.5 4184.8C29705.3 4365.18 29342 4455.37 28920.6 4455.37ZM28920.6 3557.67C29102.7 3557.67 29241.7 3447.25 29337.8 3226.41C29435.6 3005.57 29484.5 2710.55 29484.5 2341.35C29484.5 1982.27 29437.3 1698.21 29342.9 1489.17C29250.2 1280.13 29109.4 1175.61 28920.6 1175.61C28730.1 1175.61 28588.5 1280.13 28495.8 1489.17C28403 1698.21 28356.7 1982.27 28356.7 2341.35C28356.7 2710.55 28404.7 3005.57 28500.8 3226.41C28596.9 3447.25 28736.8 3557.67 28920.6 3557.67Z" fill="#141414"/>
<path d="M20223.7 3491.93V4382.04H18448.6V3491.93H18848.1L19541 1248.94H19012.5V358.828H21518.4L22416.1 3491.93H22813.1V4382.04H20549.9V3491.93H20878.7L20769.9 3062.04H19857.1L19743.3 3491.93H20223.7ZM20648.5 2450.09L20355.2 1218.6L19986 2450.09H20648.5Z" fill="#141414"/>
</svg>
